<mxfile host="app.diagrams.net" modified="2022-12-22T10:41:21.010Z" agent="5.0 (Windows NT 10.0; Win64; x64) AppleWebKit/537.36 (KHTML, like Gecko) Chrome/86.0.4240.183 Safari/537.36" etag="qMj6HtJxPwOLIuHZwXcy" version="20.4.0" type="github">
  <diagram id="3dMt6NZs3axT-CZ2e_4q" name="第 1 页">
    <mxGraphModel dx="1038" dy="548" grid="1" gridSize="10" guides="1" tooltips="1" connect="1" arrows="1" fold="1" page="1" pageScale="1" pageWidth="827" pageHeight="1169" math="0" shadow="0">
      <root>
        <mxCell id="0" />
        <mxCell id="1" parent="0" />
        <mxCell id="KQW9_Wq9OvyqtNP6xI49-8" style="edgeStyle=none;rounded=0;orthogonalLoop=1;jettySize=auto;html=1;exitX=0.5;exitY=1;exitDx=0;exitDy=0;entryX=0.5;entryY=0;entryDx=0;entryDy=0;" edge="1" parent="1" source="KQW9_Wq9OvyqtNP6xI49-1" target="KQW9_Wq9OvyqtNP6xI49-2">
          <mxGeometry relative="1" as="geometry" />
        </mxCell>
        <mxCell id="KQW9_Wq9OvyqtNP6xI49-1" value="&lt;p class=&quot;MsoNormal&quot;&gt;&lt;span style=&quot;font-family: 宋体; font-size: 12pt;&quot;&gt;&lt;font face=&quot;宋体&quot;&gt;计算机考试系统&lt;/font&gt;&lt;/span&gt;&lt;/p&gt;" style="rounded=0;whiteSpace=wrap;html=1;" vertex="1" parent="1">
          <mxGeometry x="240" y="70" width="120" height="40" as="geometry" />
        </mxCell>
        <mxCell id="KQW9_Wq9OvyqtNP6xI49-12" style="edgeStyle=orthogonalEdgeStyle;rounded=0;orthogonalLoop=1;jettySize=auto;html=1;exitX=0.5;exitY=1;exitDx=0;exitDy=0;entryX=0.5;entryY=0;entryDx=0;entryDy=0;" edge="1" parent="1" source="KQW9_Wq9OvyqtNP6xI49-2" target="KQW9_Wq9OvyqtNP6xI49-4">
          <mxGeometry relative="1" as="geometry" />
        </mxCell>
        <mxCell id="KQW9_Wq9OvyqtNP6xI49-13" style="edgeStyle=orthogonalEdgeStyle;rounded=0;orthogonalLoop=1;jettySize=auto;html=1;exitX=0.5;exitY=1;exitDx=0;exitDy=0;entryX=0.5;entryY=0;entryDx=0;entryDy=0;" edge="1" parent="1" source="KQW9_Wq9OvyqtNP6xI49-2" target="KQW9_Wq9OvyqtNP6xI49-3">
          <mxGeometry relative="1" as="geometry" />
        </mxCell>
        <mxCell id="KQW9_Wq9OvyqtNP6xI49-14" style="edgeStyle=orthogonalEdgeStyle;rounded=0;orthogonalLoop=1;jettySize=auto;html=1;entryX=0.5;entryY=0;entryDx=0;entryDy=0;" edge="1" parent="1" source="KQW9_Wq9OvyqtNP6xI49-2" target="KQW9_Wq9OvyqtNP6xI49-5">
          <mxGeometry relative="1" as="geometry" />
        </mxCell>
        <mxCell id="KQW9_Wq9OvyqtNP6xI49-16" style="edgeStyle=orthogonalEdgeStyle;rounded=0;orthogonalLoop=1;jettySize=auto;html=1;exitX=0.5;exitY=1;exitDx=0;exitDy=0;entryX=0.5;entryY=0;entryDx=0;entryDy=0;" edge="1" parent="1" source="KQW9_Wq9OvyqtNP6xI49-2" target="KQW9_Wq9OvyqtNP6xI49-6">
          <mxGeometry relative="1" as="geometry" />
        </mxCell>
        <mxCell id="KQW9_Wq9OvyqtNP6xI49-2" value="&lt;p class=&quot;MsoNormal&quot;&gt;&lt;span style=&quot;font-family: 宋体; font-size: 12pt;&quot;&gt;&lt;font face=&quot;宋体&quot;&gt;登录管理&lt;/font&gt;&lt;/span&gt;&lt;/p&gt;" style="rounded=0;whiteSpace=wrap;html=1;" vertex="1" parent="1">
          <mxGeometry x="240" y="130" width="120" height="30" as="geometry" />
        </mxCell>
        <mxCell id="KQW9_Wq9OvyqtNP6xI49-3" value="&lt;p class=&quot;MsoNormal&quot;&gt;&lt;span style=&quot;font-family: 宋体; font-size: 12pt;&quot;&gt;&lt;font face=&quot;宋体&quot;&gt;填空题模块设计&lt;/font&gt;&lt;/span&gt;&lt;/p&gt;" style="rounded=0;whiteSpace=wrap;html=1;" vertex="1" parent="1">
          <mxGeometry x="250" y="200" width="30" height="160" as="geometry" />
        </mxCell>
        <mxCell id="KQW9_Wq9OvyqtNP6xI49-4" value="&lt;p class=&quot;MsoNormal&quot;&gt;&lt;span style=&quot;font-family: 宋体; font-size: 12pt;&quot;&gt;&lt;font face=&quot;宋体&quot;&gt;选择题模块设计&lt;/font&gt;&lt;/span&gt;&lt;/p&gt;" style="rounded=0;whiteSpace=wrap;html=1;" vertex="1" parent="1">
          <mxGeometry x="180" y="200" width="30" height="160" as="geometry" />
        </mxCell>
        <mxCell id="KQW9_Wq9OvyqtNP6xI49-5" value="&lt;p class=&quot;MsoNormal&quot;&gt;&lt;span style=&quot;font-family: 宋体; font-size: 12pt;&quot;&gt;&lt;font face=&quot;宋体&quot;&gt;简单题模块设计&lt;/font&gt;&lt;/span&gt;&lt;/p&gt;" style="rounded=0;whiteSpace=wrap;html=1;" vertex="1" parent="1">
          <mxGeometry x="320" y="200" width="30" height="160" as="geometry" />
        </mxCell>
        <mxCell id="KQW9_Wq9OvyqtNP6xI49-6" value="&lt;p class=&quot;MsoNormal&quot;&gt;&lt;span style=&quot;font-family: 宋体; font-size: 12pt;&quot;&gt;&lt;font face=&quot;宋体&quot;&gt;编程题模块设计&lt;/font&gt;&lt;/span&gt;&lt;/p&gt;" style="rounded=0;whiteSpace=wrap;html=1;" vertex="1" parent="1">
          <mxGeometry x="399" y="200" width="30" height="160" as="geometry" />
        </mxCell>
      </root>
    </mxGraphModel>
  </diagram>
</mxfile>
